mtllib eff_enem_MI_310_beam01.mtl

v 0.000000 -0.000000 400.000031
v -0.134010 -0.000000 300.000031
v -0.134010 -0.000000 400.000031
v 0.000000 -0.000000 300.000031
v 0.134010 -0.000000 400.000031
v 0.134010 -0.000000 300.000031
v -0.134010 -0.000000 200.000015
v 0.000000 -0.000000 200.000015
v 0.134010 -0.000000 200.000015
v -0.134010 -0.000000 100.000008
v 0.000000 -0.000000 100.000008
v 0.134010 -0.000000 100.000008
v -0.178491 -0.000000 3.724780
v 0.000000 -0.000000 3.724780
v 0.178491 -0.000000 3.724780
v -0.211364 -0.000000 3.065306
v -0.213188 -0.000000 1.914406
v -0.150921 -0.000000 0.887605
v -0.000000 -0.000000 0.293443
v 0.150921 -0.000000 0.887605
v 0.213188 -0.000000 1.914405
v -0.354000 -0.000000 6.752657
v -0.391538 -0.000000 5.693049
v -0.429503 -0.000000 4.563485
v -0.473590 -0.000000 3.395971
v -0.505614 -0.000000 2.071783
v -0.488680 0.000001 0.528654
v -0.352643 0.000001 -0.992875
v -0.119286 0.000001 -1.941648
v 0.119286 0.000001 -1.941648
v 0.352643 0.000001 -0.992875
v 0.488680 0.000001 0.528654
v 0.505614 -0.000000 2.071783
v 0.473590 -0.000000 3.395971
v 0.211364 -0.000000 3.065302
v 0.429503 -0.000000 4.563485
v 0.391538 -0.000000 5.693051
v 0.354000 -0.000000 400.000031
v 0.354000 -0.000000 300.000031
v 0.354000 -0.000000 200.000015
v 0.354000 -0.000000 100.000008
v 0.354000 -0.000000 6.752657
v -0.354000 -0.000000 300.000031
v -0.354000 -0.000000 400.000031
v -0.354000 -0.000000 200.000015
v -0.354000 -0.000000 100.000008

vt 0.500000 0.506722
vt 0.252316 0.618191
vt 0.252316 0.506722
vt 0.500000 0.618191
vt 0.747684 0.506722
vt 0.747684 0.618191
vt 0.252316 0.729658
vt 0.500000 0.729658
vt 0.747684 0.729658
vt 0.252316 0.841125
vt 0.500000 0.841125
vt 0.747684 0.841125
vt 0.252316 0.952594
vt 0.500000 0.952594
vt 0.747684 0.952594
vt 0.264439 0.958334
vt 0.315935 0.965025
vt 0.399258 0.969566
vt 0.500000 0.971121
vt 0.600742 0.969566
vt 0.684065 0.965025
vt 0.004633 0.952594
vt 0.015458 0.960319
vt 0.047459 0.967707
vt 0.099239 0.974433
vt 0.168535 0.980206
vt 0.252316 0.984771
vt 0.346923 0.987931
vt 0.448220 0.989545
vt 0.551780 0.989545
vt 0.653077 0.987931
vt 0.747684 0.984771
vt 0.831466 0.980206
vt 0.900761 0.974433
vt 0.735562 0.958334
vt 0.952541 0.967707
vt 0.984543 0.960319
vt 0.995367 0.506722
vt 0.995367 0.618191
vt 0.995367 0.729658
vt 0.995367 0.841125
vt 0.995367 0.952594
vt 0.004633 0.618191
vt 0.004633 0.506722
vt 0.004633 0.729658
vt 0.004633 0.841125

vn 0.000000 1.000000 0.000000
vn 0.000000 1.000000 0.000000
vn 0.000000 1.000000 0.000000
vn 0.000000 1.000000 0.000000
vn 0.000000 1.000000 0.000000
vn 0.000000 1.000000 0.000000
vn 0.000000 1.000000 0.000000
vn 0.000000 1.000000 0.000000
vn 0.000000 1.000000 0.000000
vn 0.000000 1.000000 0.000000
vn 0.000000 1.000000 0.000000
vn 0.000000 1.000000 0.000000
vn 0.000000 1.000000 0.000000
vn 0.000000 1.000000 0.000000
vn 0.000000 1.000000 0.000000
vn 0.000000 1.000000 0.000000
vn 0.000000 1.000000 0.000000
vn 0.000000 1.000000 0.000000
vn 0.000000 1.000000 0.000000
vn 0.000000 1.000000 0.000000
vn 0.000000 1.000000 0.000000
vn 0.000000 1.000000 0.000000
vn 0.000000 1.000000 0.000000
vn 0.000000 1.000000 0.000000
vn 0.000000 1.000000 0.000000
vn 0.000000 1.000000 0.000000
vn 0.000000 1.000000 0.000000
vn 0.000000 1.000000 0.000000
vn 0.000000 1.000000 0.000000
vn 0.000000 1.000000 0.000000
vn 0.000000 1.000000 0.000000
vn 0.000000 1.000000 0.000000
vn 0.000000 1.000000 0.000000
vn 0.000000 1.000000 0.000000
vn 0.000000 1.000000 0.000000
vn 0.000000 1.000000 0.000000
vn 0.000000 1.000000 0.000000
vn 0.000000 1.000000 0.000000
vn 0.000000 1.000000 0.000000
vn 0.000000 1.000000 0.000000
vn 0.000000 1.000000 0.000000
vn 0.000000 1.000000 0.000000
vn 0.000000 1.000000 0.000000
vn 0.000000 1.000000 0.000000
vn 0.000000 1.000000 0.000000
vn 0.000000 1.000000 0.000000

g polygon0
s 1
usemtl mat1
f 1/1/1 2/2/2 3/3/3
f 1/1/1 4/4/4 2/2/2
f 5/5/5 4/4/4 1/1/1
f 5/5/5 6/6/6 4/4/4
f 4/4/4 7/7/7 2/2/2
f 4/4/4 8/8/8 7/7/7
f 6/6/6 8/8/8 4/4/4
f 6/6/6 9/9/9 8/8/8
f 8/8/8 10/10/10 7/7/7
f 8/8/8 11/11/11 10/10/10
f 9/9/9 11/11/11 8/8/8
f 9/9/9 12/12/12 11/11/11
f 11/11/11 13/13/13 10/10/10
f 11/11/11 14/14/14 13/13/13
f 12/12/12 14/14/14 11/11/11
f 12/12/12 15/15/15 14/14/14
f 14/14/14 16/16/16 13/13/13
f 14/14/14 17/17/17 16/16/16
f 18/18/18 17/17/17 14/14/14
f 14/14/14 19/19/19 18/18/18
f 14/14/14 20/20/20 19/19/19
f 21/21/21 20/20/20 14/14/14
f 16/16/16 22/22/22 13/13/13
f 16/16/16 23/23/23 22/22/22
f 24/24/24 23/23/23 16/16/16
f 17/17/17 24/24/24 16/16/16
f 17/17/17 25/25/25 24/24/24
f 26/26/26 25/25/25 17/17/17
f 18/18/18 26/26/26 17/17/17
f 18/18/18 27/27/27 26/26/26
f 28/28/28 27/27/27 18/18/18
f 19/19/19 28/28/28 18/18/18
f 19/19/19 29/29/29 28/28/28
f 30/30/30 29/29/29 19/19/19
f 20/20/20 30/30/30 19/19/19
f 20/20/20 31/31/31 30/30/30
f 32/32/32 31/31/31 20/20/20
f 21/21/21 32/32/32 20/20/20
f 21/21/21 33/33/33 32/32/32
f 34/34/34 33/33/33 21/21/21
f 35/35/35 34/34/34 21/21/21
f 35/35/35 36/36/36 34/34/34
f 37/37/37 36/36/36 35/35/35
f 38/38/38 6/6/6 5/5/5
f 38/38/38 39/39/39 6/6/6
f 39/39/39 9/9/9 6/6/6
f 39/39/39 40/40/40 9/9/9
f 40/40/40 12/12/12 9/9/9
f 40/40/40 41/41/41 12/12/12
f 41/41/41 15/15/15 12/12/12
f 41/41/41 42/42/42 15/15/15
f 35/35/35 14/14/14 15/15/15
f 35/35/35 21/21/21 14/14/14
f 3/3/3 43/43/43 44/44/44
f 3/3/3 2/2/2 43/43/43
f 2/2/2 45/45/45 43/43/43
f 2/2/2 7/7/7 45/45/45
f 7/7/7 46/46/46 45/45/45
f 7/7/7 10/10/10 46/46/46
f 10/10/10 22/22/22 46/46/46
f 10/10/10 13/13/13 22/22/22
f 37/37/37 15/15/15 42/42/42
f 37/37/37 35/35/35 15/15/15

v 0.000000 -0.000000 400.000031
v -0.000000 0.134010 300.000031
v -0.000000 0.134010 400.000031
v 0.000000 -0.000000 300.000031
v 0.000000 -0.134010 400.000031
v 0.000000 -0.134010 300.000031
v -0.000000 0.134010 200.000015
v 0.000000 -0.000000 200.000015
v 0.000000 -0.134010 200.000015
v -0.000000 0.134010 100.000008
v 0.000000 -0.000000 100.000008
v 0.000000 -0.134010 100.000008
v -0.000000 0.178491 3.724780
v 0.000000 -0.000000 3.724780
v 0.000000 -0.178491 3.724780
v -0.000000 0.211364 3.065306
v -0.000000 0.213188 1.914406
v -0.000000 0.150921 0.887605
v -0.000000 0.000000 0.293443
v 0.000000 -0.150921 0.887605
v 0.000000 -0.213188 1.914405
v -0.000000 0.354000 6.752657
v -0.000000 0.391538 5.693049
v -0.000000 0.429503 4.563485
v -0.000000 0.473590 3.395971
v -0.000000 0.505614 2.071783
v -0.000001 0.488680 0.528654
v -0.000001 0.352643 -0.992875
v -0.000001 0.119286 -1.941648
v -0.000001 -0.119286 -1.941648
v -0.000001 -0.352643 -0.992875
v -0.000001 -0.488680 0.528654
v 0.000000 -0.505614 2.071783
v 0.000000 -0.473590 3.395971
v 0.000000 -0.211364 3.065302
v 0.000000 -0.429503 4.563485
v 0.000000 -0.391538 5.693051
v 0.000000 -0.354000 400.000031
v 0.000000 -0.354000 300.000031
v 0.000000 -0.354000 200.000015
v 0.000000 -0.354000 100.000008
v 0.000000 -0.354000 6.752657
v -0.000000 0.354000 300.000031
v -0.000000 0.354000 400.000031
v -0.000000 0.354000 200.000015
v -0.000000 0.354000 100.000008

vt 0.500000 0.506722
vt 0.252316 0.618191
vt 0.252316 0.506722
vt 0.500000 0.618191
vt 0.747684 0.506722
vt 0.747684 0.618191
vt 0.252316 0.729658
vt 0.500000 0.729658
vt 0.747684 0.729658
vt 0.252316 0.841125
vt 0.500000 0.841125
vt 0.747684 0.841125
vt 0.252316 0.952594
vt 0.500000 0.952594
vt 0.747684 0.952594
vt 0.264439 0.958334
vt 0.315935 0.965025
vt 0.399258 0.969566
vt 0.500000 0.971121
vt 0.600742 0.969566
vt 0.684065 0.965025
vt 0.004633 0.952594
vt 0.015458 0.960319
vt 0.047459 0.967707
vt 0.099239 0.974433
vt 0.168535 0.980206
vt 0.252316 0.984771
vt 0.346923 0.987931
vt 0.448220 0.989545
vt 0.551780 0.989545
vt 0.653077 0.987931
vt 0.747684 0.984771
vt 0.831466 0.980206
vt 0.900761 0.974433
vt 0.735562 0.958334
vt 0.952541 0.967707
vt 0.984543 0.960319
vt 0.995367 0.506722
vt 0.995367 0.618191
vt 0.995367 0.729658
vt 0.995367 0.841125
vt 0.995367 0.952594
vt 0.004633 0.618191
vt 0.004633 0.506722
vt 0.004633 0.729658
vt 0.004633 0.841125

vn 1.000000 0.000000 0.000000
vn 1.000000 0.000000 0.000000
vn 1.000000 0.000000 0.000000
vn 1.000000 0.000000 0.000000
vn 1.000000 0.000000 0.000000
vn 1.000000 0.000000 0.000000
vn 1.000000 0.000000 0.000000
vn 1.000000 0.000000 0.000000
vn 1.000000 0.000000 0.000000
vn 1.000000 0.000000 0.000000
vn 1.000000 0.000000 0.000000
vn 1.000000 0.000000 0.000000
vn 1.000000 0.000000 0.000000
vn 1.000000 0.000000 0.000000
vn 1.000000 0.000000 0.000000
vn 1.000000 0.000000 0.000000
vn 1.000000 0.000000 0.000000
vn 1.000000 0.000000 0.000000
vn 1.000000 0.000000 0.000000
vn 1.000000 0.000000 0.000000
vn 1.000000 0.000000 0.000000
vn 1.000000 0.000000 0.000000
vn 1.000000 0.000000 0.000000
vn 1.000000 0.000000 0.000000
vn 1.000000 0.000000 0.000000
vn 1.000000 0.000000 0.000000
vn 1.000000 0.000000 0.000000
vn 1.000000 0.000000 0.000000
vn 1.000000 0.000000 0.000000
vn 1.000000 0.000000 0.000000
vn 1.000000 0.000000 0.000000
vn 1.000000 0.000000 0.000000
vn 1.000000 0.000000 0.000000
vn 1.000000 0.000000 0.000000
vn 1.000000 0.000000 0.000000
vn 1.000000 0.000000 0.000000
vn 1.000000 0.000000 0.000000
vn 1.000000 0.000000 0.000000
vn 1.000000 0.000000 0.000000
vn 1.000000 0.000000 0.000000
vn 1.000000 0.000000 0.000000
vn 1.000000 0.000000 0.000000
vn 1.000000 0.000000 0.000000
vn 1.000000 0.000000 0.000000
vn 1.000000 0.000000 0.000000
vn 1.000000 0.000000 0.000000

g polygon1
s 1
usemtl mat1
f 47/47/47 48/48/48 49/49/49
f 47/47/47 50/50/50 48/48/48
f 51/51/51 50/50/50 47/47/47
f 51/51/51 52/52/52 50/50/50
f 50/50/50 53/53/53 48/48/48
f 50/50/50 54/54/54 53/53/53
f 52/52/52 54/54/54 50/50/50
f 52/52/52 55/55/55 54/54/54
f 54/54/54 56/56/56 53/53/53
f 54/54/54 57/57/57 56/56/56
f 55/55/55 57/57/57 54/54/54
f 55/55/55 58/58/58 57/57/57
f 57/57/57 59/59/59 56/56/56
f 57/57/57 60/60/60 59/59/59
f 58/58/58 60/60/60 57/57/57
f 58/58/58 61/61/61 60/60/60
f 60/60/60 62/62/62 59/59/59
f 60/60/60 63/63/63 62/62/62
f 64/64/64 63/63/63 60/60/60
f 60/60/60 65/65/65 64/64/64
f 60/60/60 66/66/66 65/65/65
f 67/67/67 66/66/66 60/60/60
f 62/62/62 68/68/68 59/59/59
f 62/62/62 69/69/69 68/68/68
f 70/70/70 69/69/69 62/62/62
f 63/63/63 70/70/70 62/62/62
f 63/63/63 71/71/71 70/70/70
f 72/72/72 71/71/71 63/63/63
f 64/64/64 72/72/72 63/63/63
f 64/64/64 73/73/73 72/72/72
f 74/74/74 73/73/73 64/64/64
f 65/65/65 74/74/74 64/64/64
f 65/65/65 75/75/75 74/74/74
f 76/76/76 75/75/75 65/65/65
f 66/66/66 76/76/76 65/65/65
f 66/66/66 77/77/77 76/76/76
f 78/78/78 77/77/77 66/66/66
f 67/67/67 78/78/78 66/66/66
f 67/67/67 79/79/79 78/78/78
f 80/80/80 79/79/79 67/67/67
f 81/81/81 80/80/80 67/67/67
f 81/81/81 82/82/82 80/80/80
f 83/83/83 82/82/82 81/81/81
f 84/84/84 52/52/52 51/51/51
f 84/84/84 85/85/85 52/52/52
f 85/85/85 55/55/55 52/52/52
f 85/85/85 86/86/86 55/55/55
f 86/86/86 58/58/58 55/55/55
f 86/86/86 87/87/87 58/58/58
f 87/87/87 61/61/61 58/58/58
f 87/87/87 88/88/88 61/61/61
f 81/81/81 60/60/60 61/61/61
f 81/81/81 67/67/67 60/60/60
f 49/49/49 89/89/89 90/90/90
f 49/49/49 48/48/48 89/89/89
f 48/48/48 91/91/91 89/89/89
f 48/48/48 53/53/53 91/91/91
f 53/53/53 92/92/92 91/91/91
f 53/53/53 56/56/56 92/92/92
f 56/56/56 68/68/68 92/92/92
f 56/56/56 59/59/59 68/68/68
f 83/83/83 61/61/61 88/88/88
f 83/83/83 81/81/81 61/61/61

